# xmcd
# 
# Track frame offsets:
#     150
#     30850
#     121300
#     212950
# 
# Disc length: 3926
# 
# Revision: 0
# Processed by: cddbd v1.5.2PL0 Copyright (c) Steve Scherf et al.
# Submitted via: fre:ac v1.0.17
# 
DISCID=2d0f5404
DTITLE=Energy for Empowerment - Energy for Empowerment
DYEAR=2011
DGENRE=Audiobook
TTITLE0=Energy Introduction
TTITLE1=Energy Session A
TTITLE2=Energy Session B
TTITLE3=Energy Session C
EXTD=
EXTT0=
EXTT1=
EXTT2=
EXTT3=
PLAYORDER=
